<svg xmlns="http://www.w3.org/2000/svg" width="1400" height="840" viewBox="0 0 1400 840" role="img" aria-labelledby="t d"><title id="t">Dog tapeworm treatment travel timing illustration</title><desc id="d">Traveling dog beside a veterinarian treatment record, clock and 24 to 120 hour calendar window</desc><rect width="1400" height="840" fill="#EAF4EE"/><rect x="0" y="0" width="1400" height="170" fill="#2C4A38"/><circle cx="120" cy="86" r="48" fill="#C9A84C"/><path d="M96 99c8-29 42-42 65-22 17 14 17 40 0 56-18 17-44 17-61-1-8-9-11-21-4-33Z" fill="#FAFCFB"/><text x="205" y="80" fill="#FAFCFB" font-family="Georgia,serif" font-size="40" font-weight="700">The 24–120 hour travel window</text><text x="205" y="126" fill="#9DC4AA" font-family="Arial,sans-serif" font-size="24">Dog tapeworm treatment before arrival</text><g transform="translate(105 225)"><rect width="1190" height="500" rx="34" fill="#FAFCFB"/><g transform="translate(65 70)"><path d="M180 55c85 0 137 69 137 147v98c0 62-40 112-101 112H144c-61 0-101-50-101-112v-98C43 124 95 55 180 55Z" fill="#C89E74"/><ellipse cx="180" cy="237" rx="94" ry="108" fill="#D9B58B"/><path d="M127 80 81 14 70 110ZM234 80l48-66 12 96Z" fill="#B6865D"/><circle cx="143" cy="220" r="10" fill="#1A2E22"/><circle cx="218" cy="220" r="10" fill="#1A2E22"/><ellipse cx="180" cy="258" rx="18" ry="13" fill="#1A2E22"/><path d="M149 287q31 23 62 0" fill="none" stroke="#1A2E22" stroke-width="6" stroke-linecap="round"/><path d="M280 340h92l28 57H278Z" fill="#7C9E87"/></g><g transform="translate(510 65)"><rect width="570" height="380" rx="24" fill="#F4F8F5" stroke="#7C9E87" stroke-width="3"/><rect x="34" y="34" width="502" height="62" rx="14" fill="#2C4A38"/><text x="62" y="74" fill="#FAFCFB" font-family="Arial,sans-serif" font-size="24" font-weight="700">VET TREATMENT + ARRIVAL TIME</text><circle cx="125" cy="205" r="70" fill="#C9A84C"/><circle cx="125" cy="205" r="49" fill="#FAFCFB"/><path d="M125 205v-34M125 205l27 18" stroke="#2C4A38" stroke-width="8" stroke-linecap="round"/><rect x="240" y="145" width="250" height="126" rx="18" fill="#EAF4EE"/><text x="274" y="194" fill="#2C4A38" font-family="Georgia,serif" font-size="30" font-weight="700">24 → 120</text><text x="274" y="232" fill="#5C7464" font-family="Arial,sans-serif" font-size="19">hours before arrival</text><path d="M90 325h390" stroke="#9DC4AA" stroke-width="10" stroke-linecap="round"/><circle cx="155" cy="325" r="16" fill="#2C4A38"/><circle cx="420" cy="325" r="16" fill="#2C4A38"/></g></g><text x="110" y="785" fill="#2C4A38" font-family="Georgia,serif" font-size="28" font-weight="700">YourPetPass</text><text x="290" y="785" fill="#7C9E87" font-family="Arial,sans-serif" font-size="20">Pet Travel, Simplified.</text></svg>