<svg xmlns="http://www.w3.org/2000/svg" width="1400" height="840" viewBox="0 0 1400 840" role="img" aria-labelledby="title desc"><title id="title">Pet travel health certificate after a flight delay</title><desc id="desc">Warm editorial illustration of a dog beside a pet health certificate, delayed flight board and calendar representing a certificate validity window.</desc><rect width="1400" height="840" fill="#EAF4EE"/><circle cx="1110" cy="160" r="210" fill="#9DC4AA" opacity=".55"/><rect x="650" y="155" width="500" height="520" rx="28" fill="#FAFCFB" stroke="#7C9E87" stroke-width="5"/><rect x="710" y="215" width="250" height="28" rx="8" fill="#2C4A38"/><rect x="710" y="275" width="365" height="14" rx="7" fill="#9DC4AA"/><rect x="710" y="315" width="330" height="14" rx="7" fill="#9DC4AA"/><rect x="710" y="355" width="290" height="14" rx="7" fill="#9DC4AA"/><rect x="710" y="420" width="175" height="130" rx="16" fill="#EAF4EE" stroke="#C9A84C" stroke-width="5"/><path d="M735 455h125M735 490h125M775 430v105M820 430v105" stroke="#7C9E87" stroke-width="7"/><circle cx="850" cy="490" r="18" fill="#C9A84C"/><rect x="930" y="420" width="165" height="130" rx="16" fill="#2C4A38"/><text x="1012" y="463" text-anchor="middle" fill="#FAFCFB" font-family="Arial,sans-serif" font-size="20" font-weight="700">FLIGHT</text><text x="1012" y="505" text-anchor="middle" fill="#C9A84C" font-family="Arial,sans-serif" font-size="25" font-weight="700">DELAYED</text><path d="M990 590h65l38 25-38 7-20-8-22 8-16-5 16-14z" fill="#7C9E87"/><ellipse cx="380" cy="650" rx="235" ry="55" fill="#7C9E87" opacity=".2"/><path d="M280 580c-42-52-48-142-3-212 39-61 119-87 188-58 72 30 109 113 82 185-17 45-51 76-91 94l-4 77H309l-5-76z" fill="#B88B5A"/><path d="M292 392c-50-13-79-59-70-111 52 3 91 33 108 80zM482 367c22-49 67-73 117-62 0 52-29 91-78 110z" fill="#8A613F"/><ellipse cx="389" cy="451" rx="112" ry="100" fill="#C89B68"/><circle cx="350" cy="432" r="11" fill="#1A2E22"/><circle cx="431" cy="432" r="11" fill="#1A2E22"/><ellipse cx="391" cy="474" rx="22" ry="16" fill="#1A2E22"/><path d="M390 490c-4 25-25 33-42 19M392 490c4 25 25 33 42 19" fill="none" stroke="#1A2E22" stroke-width="6" stroke-linecap="round"/><circle cx="388" cy="582" r="25" fill="#C9A84C"/><path d="M388 570l5 10 11 2-8 8 2 11-10-5-10 5 2-11-8-8 11-2z" fill="#FAFCFB"/><text x="130" y="120" fill="#2C4A38" font-family="Georgia,serif" font-size="52" font-weight="700">When the itinerary moves,</text><text x="130" y="182" fill="#2C4A38" font-family="Georgia,serif" font-size="52" font-weight="700">recheck the paperwork clock.</text><text x="132" y="230" fill="#5C7464" font-family="Arial,sans-serif" font-size="23">Pet health certificate validity after a travel delay</text></svg>