<svg xmlns="http://www.w3.org/2000/svg" width="1400" height="840" viewBox="0 0 1400 840" role="img" aria-labelledby="t d"><title id="t">Pet medical summary for emergency veterinary care</title><desc id="d">Editorial illustration of a dog and cat beside a one-page veterinary medical summary with medication, allergy, vaccine and emergency contact sections.</desc><rect width="1400" height="840" fill="#eaf4ee"/><circle cx="1120" cy="165" r="210" fill="#dce8e0"/><circle cx="180" cy="720" r="240" fill="#f4ead0"/><rect x="520" y="100" width="610" height="650" rx="28" fill="#fff" stroke="#2c4a38" stroke-width="6"/><rect x="565" y="145" width="520" height="74" rx="12" fill="#2c4a38"/><text x="825" y="192" text-anchor="middle" font-family="Arial,sans-serif" font-size="31" font-weight="700" fill="#fff">PET MEDICAL SUMMARY</text><g font-family="Arial,sans-serif" fill="#1a2e22"><text x="580" y="270" font-size="24" font-weight="700">CURRENT MEDICATIONS</text><rect x="580" y="288" width="470" height="12" rx="6" fill="#c9a84c"/><rect x="580" y="320" width="410" height="13" rx="6" fill="#dce8e0"/><rect x="580" y="348" width="350" height="13" rx="6" fill="#dce8e0"/><text x="580" y="410" font-size="24" font-weight="700">ALLERGIES / REACTIONS</text><rect x="580" y="430" width="470" height="58" rx="12" fill="#fff4e8" stroke="#c9a84c" stroke-width="3"/><text x="580" y="545" font-size="24" font-weight="700">ACTIVE CONDITIONS</text><rect x="580" y="566" width="430" height="13" rx="6" fill="#dce8e0"/><rect x="580" y="594" width="380" height="13" rx="6" fill="#dce8e0"/><text x="580" y="658" font-size="24" font-weight="700">VET + EMERGENCY CONTACT</text><rect x="580" y="680" width="450" height="13" rx="6" fill="#dce8e0"/></g><g transform="translate(115 205)"><ellipse cx="190" cy="425" rx="160" ry="155" fill="#d8b58a"/><circle cx="190" cy="245" r="125" fill="#e4c49d"/><path d="M90 190L105 60l85 105M290 190L278 65l-88 100" fill="#c59a6b"/><ellipse cx="190" cy="275" rx="52" ry="42" fill="#f4dfc5"/><circle cx="150" cy="230" r="10" fill="#1a2e22"/><circle cx="230" cy="230" r="10" fill="#1a2e22"/><ellipse cx="190" cy="267" rx="15" ry="11" fill="#1a2e22"/><path d="M160 295q30 30 60 0" fill="none" stroke="#1a2e22" stroke-width="6" stroke-linecap="round"/></g><g transform="translate(1050 465)"><ellipse cx="130" cy="165" rx="105" ry="120" fill="#5f493b"/><circle cx="130" cy="70" r="85" fill="#6d5444"/><path d="M58 28L72-55l60 62M202 28L188-55l-58 62" fill="#4d3a30"/><circle cx="100" cy="65" r="8" fill="#fff"/><circle cx="160" cy="65" r="8" fill="#fff"/><ellipse cx="130" cy="92" rx="11" ry="8" fill="#1a2e22"/></g><rect x="72" y="55" width="345" height="76" rx="38" fill="#2c4a38"/><text x="245" y="103" text-anchor="middle" font-family="Arial,sans-serif" font-size="25" font-weight="700" fill="#fff">READY WHEN CARE CAN'T WAIT</text></svg>