<svg xmlns="http://www.w3.org/2000/svg" viewBox="0 0 1400 840" role="img" aria-labelledby="title desc">
<title id="title">Preparing pet travel documents for a veterinary appointment</title>
<desc id="desc">Warm editorial illustration of a dog beside a travel folder containing vaccination, microchip and itinerary records at a veterinary clinic.</desc>
<rect width="1400" height="840" fill="#EAF4EE"/>
<circle cx="1180" cy="135" r="180" fill="#9DC4AA" opacity=".42"/>
<circle cx="170" cy="720" r="240" fill="#7C9E87" opacity=".18"/>
<rect x="100" y="105" width="1200" height="630" rx="38" fill="#FAFCFB" stroke="#DCE8E0" stroke-width="5"/>
<rect x="170" y="180" width="570" height="410" rx="28" fill="#2C4A38"/>
<rect x="220" y="235" width="470" height="300" rx="20" fill="#fff"/>
<rect x="265" y="285" width="280" height="20" rx="10" fill="#7C9E87"/>
<rect x="265" y="335" width="365" height="15" rx="7" fill="#DCE8E0"/>
<rect x="265" y="375" width="325" height="15" rx="7" fill="#DCE8E0"/>
<rect x="265" y="415" width="350" height="15" rx="7" fill="#DCE8E0"/>
<circle cx="605" cy="290" r="35" fill="#C9A84C"/>
<path d="M590 295c8-28 25-28 32 0 20-12 32 10 14 24-14 12-42 12-57 0-17-14-8-36 11-24z" fill="#2C4A38"/>
<text x="455" y="510" text-anchor="middle" font-family="Georgia,serif" font-size="27" fill="#2C4A38" font-weight="700">TRAVEL RECORDS</text>
<path d="M790 520c10-108 77-186 176-186s166 78 176 186" fill="#C9A66B"/>
<ellipse cx="966" cy="365" rx="115" ry="100" fill="#D8B47A"/>
<ellipse cx="875" cy="360" rx="52" ry="82" fill="#C9A66B" transform="rotate(-25 875 360)"/>
<ellipse cx="1057" cy="360" rx="52" ry="82" fill="#C9A66B" transform="rotate(25 1057 360)"/>
<ellipse cx="966" cy="400" rx="58" ry="45" fill="#E7C998"/>
<circle cx="925" cy="350" r="9" fill="#1A2E22"/><circle cx="1007" cy="350" r="9" fill="#1A2E22"/>
<ellipse cx="966" cy="390" rx="17" ry="13" fill="#1A2E22"/>
<path d="M938 420q28 25 56 0" fill="none" stroke="#1A2E22" stroke-width="6" stroke-linecap="round"/>
<path d="M910 520h112" stroke="#2C4A38" stroke-width="18" stroke-linecap="round"/>
<circle cx="966" cy="540" r="22" fill="#C9A84C"/>
<path d="M1190 610H780" stroke="#DCE8E0" stroke-width="8" stroke-linecap="round"/>
<text x="985" y="655" text-anchor="middle" font-family="Georgia,serif" font-size="28" fill="#2C4A38">Vet visit + documents + timing</text>
</svg>